<?xml version="1.0" encoding="UTF-8"?>
<svg id="Layer_2" data-name="Layer 2" xmlns="http://www.w3.org/2000/svg" viewBox="0 0 18.68 20.62">
  <defs>
    <style>
      .cls-1, .cls-2, .cls-3, .cls-4 {
        stroke: #c33;
      }

      .cls-1, .cls-2, .cls-3, .cls-4, .cls-5, .cls-6 {
        fill: none;
        stroke-miterlimit: 10;
      }

      .cls-1, .cls-5 {
        stroke-width: .75px;
      }

      .cls-2, .cls-6 {
        stroke-width: .5px;
      }

      .cls-4 {
        stroke-width: .25px;
      }

      .cls-5 {
        stroke: #9fb3b6;
      }

      .cls-6 {
        stroke: #4a8760;
      }
    </style>
  </defs>
  <g id="Layer_2-2" data-name="Layer 2">
    <path class="cls-5" d="m17.05.04S15.17,18.54.04,20.24"/>
    <path class="cls-1" d="m18.25,15.15l-1.43-3.97s-2.14-2.52-3.03,0c0,0-.94.12,0,1.97,0,0,2.16-.62,4.07,2l.24.35"/>
    <path class="cls-3" d="m15.82,11.1l-1.18,1.37h1.62l.75.71-.7-1.71-.65-.73-.54-.21-.59.57-.13.65s-.46.12-.46.11.08.53.08.53c0,0,1.66-.36,1.71-.41s.23-.1.23-.1l-.29,1.15.71.12,1.56,1.85"/>
    <path class="cls-4" d="m17.66,15.27s.5.46.55.99.35-1.25.35-1.25c0,0,.03-.1-.56-1.4s.25,1.76.25,1.76l.09-.22"/>
    <line class="cls-2" x1="18.44" y1="15.01" x2="18.18" y2="15.76"/>
    <path class="cls-6" d="m13.8,10.53s.97-.29,1.63-.39-1.63.39-1.63.39Z"/>
    <path class="cls-6" d="m13.38,12.74c.82.58.42-2.22.42-2.22l-.42,1.74"/>
    <polyline class="cls-6" points="12.74 11.1 14.23 10.41 14.67 9.54 12.9 11.88"/>
    <polygon class="cls-6" points="13.8 11.17 15.02 11.17 15.12 10.53 14.67 10.85 13.8 11.17"/>
    <line class="cls-6" x1="13.78" y1="10.71" x2="14.67" y2="10.85"/>
  </g>
</svg>